<svg xmlns="http://www.w3.org/2000/svg" width="900" height="256" viewBox="0 0 900 256" role="img" aria-label="Chipify">
  <defs>
    <linearGradient id="tile" x1="0" y1="0" x2="0" y2="1">
      <stop offset="0" stop-color="#14243F"/><stop offset="1" stop-color="#0A1322"/>
    </linearGradient>
    <linearGradient id="body" x1="0" y1="0" x2="1" y2="1">
      <stop offset="0" stop-color="#1B2B4A"/><stop offset="1" stop-color="#0F1B30"/>
    </linearGradient>
    <linearGradient id="pin" x1="0" y1="0" x2="1" y2="1">
      <stop offset="0" stop-color="#5BA0FF"/><stop offset="1" stop-color="#3484F0"/>
    </linearGradient>
    <linearGradient id="bar" x1="0" y1="0" x2="0" y2="1">
      <stop offset="0" stop-color="#6BACFF"/><stop offset="1" stop-color="#2A66CE"/>
    </linearGradient>
    <linearGradient id="word" x1="0" y1="0" x2="1" y2="0">
      <stop offset="0" stop-color="#5BA0FF"/><stop offset="1" stop-color="#3484F0"/>
    </linearGradient>
  </defs>
  <g>
    <rect x="0" y="0" width="256" height="256" rx="56" fill="url(#tile)"/>
    <g fill="url(#pin)">
      <rect x="36" y="83" width="28" height="18" rx="5"/>
      <rect x="192" y="83" width="28" height="18" rx="5"/>
      <rect x="36" y="119" width="28" height="18" rx="5"/>
      <rect x="192" y="119" width="28" height="18" rx="5"/>
      <rect x="36" y="155" width="28" height="18" rx="5"/>
      <rect x="192" y="155" width="28" height="18" rx="5"/>
      <rect x="83" y="36" width="18" height="28" rx="5"/>
      <rect x="83" y="192" width="18" height="28" rx="5"/>
      <rect x="119" y="36" width="18" height="28" rx="5"/>
      <rect x="119" y="192" width="18" height="28" rx="5"/>
      <rect x="155" y="36" width="18" height="28" rx="5"/>
      <rect x="155" y="192" width="18" height="28" rx="5"/>
    </g>
    <rect x="64" y="64" width="128" height="128" rx="22" fill="url(#body)" stroke="#3A6FD0" stroke-width="3"/>
    <rect x="80" y="80" width="96" height="96" rx="12" fill="none" stroke="#2C4A7A" stroke-width="2"/>
    <circle cx="96" cy="96" r="5" fill="#5BA0FF"/>
    <g>
      <rect x="85.5" y="149.0" width="9.0" height="11.0" rx="2" fill="url(#bar)"/>
      <line x1="85.5" y1="149.0" x2="94.5" y2="149.0" stroke="#CBE1FF" stroke-width="2" stroke-linecap="round"/>
      <rect x="96.5" y="126.0" width="9.0" height="34.0" rx="2" fill="url(#bar)"/>
      <line x1="96.5" y1="126.0" x2="105.5" y2="126.0" stroke="#CBE1FF" stroke-width="2" stroke-linecap="round"/>
      <rect x="107.5" y="117.0" width="9.0" height="43.0" rx="2" fill="url(#bar)"/>
      <line x1="107.5" y1="117.0" x2="116.5" y2="117.0" stroke="#CBE1FF" stroke-width="2" stroke-linecap="round"/>
      <rect x="118.5" y="98.0" width="9.0" height="62.0" rx="2" fill="url(#bar)"/>
      <line x1="118.5" y1="98.0" x2="127.5" y2="98.0" stroke="#CBE1FF" stroke-width="2" stroke-linecap="round"/>
      <rect x="129.5" y="108.0" width="9.0" height="52.0" rx="2" fill="url(#bar)"/>
      <line x1="129.5" y1="108.0" x2="138.5" y2="108.0" stroke="#CBE1FF" stroke-width="2" stroke-linecap="round"/>
      <rect x="140.5" y="110.0" width="9.0" height="50.0" rx="2" fill="url(#bar)"/>
      <line x1="140.5" y1="110.0" x2="149.5" y2="110.0" stroke="#CBE1FF" stroke-width="2" stroke-linecap="round"/>
      <rect x="151.5" y="136.0" width="9.0" height="24.0" rx="2" fill="url(#bar)"/>
      <line x1="151.5" y1="136.0" x2="160.5" y2="136.0" stroke="#CBE1FF" stroke-width="2" stroke-linecap="round"/>
      <rect x="162.5" y="144.0" width="9.0" height="16.0" rx="2" fill="url(#bar)"/>
      <line x1="162.5" y1="144.0" x2="171.5" y2="144.0" stroke="#CBE1FF" stroke-width="2" stroke-linecap="round"/>
    </g>
    <line x1="80" y1="162.0" x2="176" y2="162.0" stroke="#3A6FD0" stroke-width="3" stroke-linecap="round"/>
    <path d="M 83.00 152.35 L 84.25 151.42 L 85.50 150.41 L 86.75 149.31 L 88.00 148.13 L 89.25 146.86 L 90.50 145.50 L 91.75 144.05 L 93.00 142.51 L 94.25 140.89 L 95.50 139.18 L 96.75 137.39 L 98.00 135.53 L 99.25 133.60 L 100.50 131.61 L 101.75 129.57 L 103.00 127.49 L 104.25 125.38 L 105.50 123.25 L 106.75 121.11 L 108.00 118.99 L 109.25 116.88 L 110.50 114.82 L 111.75 112.80 L 113.00 110.86 L 114.25 109.00 L 115.50 107.24 L 116.75 105.60 L 118.00 104.09 L 119.25 102.71 L 120.50 101.50 L 121.75 100.45 L 123.00 99.58 L 124.25 98.89 L 125.50 98.40 L 126.75 98.10 L 128.00 98.00 L 129.25 98.10 L 130.50 98.40 L 131.75 98.89 L 133.00 99.58 L 134.25 100.45 L 135.50 101.50 L 136.75 102.71 L 138.00 104.09 L 139.25 105.60 L 140.50 107.24 L 141.75 109.00 L 143.00 110.86 L 144.25 112.80 L 145.50 114.82 L 146.75 116.88 L 148.00 118.99 L 149.25 121.11 L 150.50 123.25 L 151.75 125.38 L 153.00 127.49 L 154.25 129.57 L 155.50 131.61 L 156.75 133.60 L 158.00 135.53 L 159.25 137.39 L 160.50 139.18 L 161.75 140.89 L 163.00 142.51 L 164.25 144.05 L 165.50 145.50 L 166.75 146.86 L 168.00 148.13 L 169.25 149.31 L 170.50 150.41 L 171.75 151.42 L 173.00 152.35" fill="none" stroke="#FFFFFF" stroke-width="5" stroke-linecap="round" stroke-linejoin="round"/>
  </g>
  <text x="306" y="170" font-family="'Segoe UI','Helvetica Neue',Helvetica,Arial,sans-serif" font-size="150" font-weight="700" letter-spacing="-3" fill="url(#word)">Chipify</text>
</svg>
