<svg xmlns="http://www.w3.org/2000/svg" width="900" height="256" viewBox="0 0 900 256" role="img" aria-label="Chipify">
  <defs>
    <linearGradient id="tile" x1="0" y1="0" x2="0" y2="1">
      <stop offset="0" stop-color="#14243F"/>
      <stop offset="1" stop-color="#0A1322"/>
    </linearGradient>
    <linearGradient id="body" x1="0" y1="0" x2="1" y2="1">
      <stop offset="0" stop-color="#1B2B4A"/>
      <stop offset="1" stop-color="#0F1B30"/>
    </linearGradient>
    <linearGradient id="pin" x1="0" y1="0" x2="1" y2="1">
      <stop offset="0" stop-color="#5BA0FF"/>
      <stop offset="1" stop-color="#3484F0"/>
    </linearGradient>
    <linearGradient id="word" x1="0" y1="0" x2="1" y2="0">
      <stop offset="0" stop-color="#5BA0FF"/>
      <stop offset="1" stop-color="#3484F0"/>
    </linearGradient>
  </defs>

  <!-- ===== mark ===== -->
  <g>
    <rect x="0" y="0" width="256" height="256" rx="56" fill="url(#tile)"/>
    <g fill="url(#pin)">
      <rect x="36" y="83"  width="28" height="18" rx="5"/>
      <rect x="36" y="119" width="28" height="18" rx="5"/>
      <rect x="36" y="155" width="28" height="18" rx="5"/>
      <rect x="192" y="83"  width="28" height="18" rx="5"/>
      <rect x="192" y="119" width="28" height="18" rx="5"/>
      <rect x="192" y="155" width="28" height="18" rx="5"/>
      <rect x="83"  y="36" width="18" height="28" rx="5"/>
      <rect x="119" y="36" width="18" height="28" rx="5"/>
      <rect x="155" y="36" width="18" height="28" rx="5"/>
      <rect x="83"  y="192" width="18" height="28" rx="5"/>
      <rect x="119" y="192" width="18" height="28" rx="5"/>
      <rect x="155" y="192" width="18" height="28" rx="5"/>
    </g>
    <rect x="64" y="64" width="128" height="128" rx="22" fill="url(#body)" stroke="#3A6FD0" stroke-width="3"/>
    <rect x="80" y="80" width="96"  height="96"  rx="12" fill="none" stroke="#2C4A7A" stroke-width="2"/>
    <circle cx="96" cy="96" r="5" fill="#5BA0FF"/>
    <line x1="78" y1="162" x2="178" y2="162" stroke="#3A6FD0" stroke-width="4" stroke-linecap="round"/>
    <path d="M80 160 C 110 160, 113 100, 128 100 C 143 100, 146 160, 176 160"
          fill="none" stroke="#FFFFFF" stroke-width="11" stroke-linecap="round" stroke-linejoin="round"/>
  </g>

  <!-- ===== wordmark ===== -->
  <text x="306" y="170" font-family="'Segoe UI', 'Helvetica Neue', Helvetica, Arial, sans-serif"
        font-size="150" font-weight="700" letter-spacing="-3" fill="url(#word)">Chipify</text>
</svg>
